<svg width="25" height="16" viewBox="0 0 25 16" fill="none" xmlns="http://www.w3.org/2000/svg">
<path d="M22.1057 0H2.16497C1.06368 0 0.170898 0.89543 0.170898 2V14C0.170898 15.1046 1.06368 16 2.16497 16H22.1057C23.207 16 24.0998 15.1046 24.0998 14V2C24.0998 0.89543 23.207 0 22.1057 0Z" fill="#016FD0"/>
<path fill-rule="evenodd" clip-rule="evenodd" d="M13.894 13.3938V7.69238L24.0115 7.70149V9.27638L22.8421 10.5298L24.0115 11.7947V13.403H22.1445L21.1522 12.3048L20.167 13.4071L13.894 13.3938Z" fill="#FFFFFE"/>
<path fill-rule="evenodd" clip-rule="evenodd" d="M14.5698 12.7687V8.31982H18.3309V9.34471H15.7876V10.0404H18.2703V11.0482H15.7876V11.7315H18.3309V12.7687H14.5698Z" fill="#016FD0"/>
<path fill-rule="evenodd" clip-rule="evenodd" d="M18.3121 12.7686L20.3933 10.5416L18.312 8.31982H19.9229L21.1946 9.72986L22.4699 8.31982H24.0115V8.35483L21.9747 10.5416L24.0115 12.7055V12.7686H22.4544L21.1601 11.3444L19.8792 12.7686H18.3121Z" fill="#016FD0"/>
<path fill-rule="evenodd" clip-rule="evenodd" d="M14.3662 2.63184H16.805L17.6616 4.58269V2.63184H20.6725L21.1917 4.09341L21.7126 2.63184H24.0118V8.33323H11.8613L14.3662 2.63184Z" fill="#FFFFFE"/>
<path fill-rule="evenodd" clip-rule="evenodd" d="M14.828 3.25098L12.8599 7.69615H14.2098L14.5811 6.80598H16.593L16.9641 7.69615H18.3476L16.3876 3.25098H14.828ZM14.9972 5.80841L15.5874 4.39334L16.1772 5.80841H14.9972Z" fill="#016FD0"/>
<path fill-rule="evenodd" clip-rule="evenodd" d="M18.3291 7.69557V3.25049L20.2266 3.25703L21.203 5.98976L22.1857 3.25049H24.0118V7.69557L22.8367 7.706V4.65265L21.7274 7.69557H20.6548L19.5226 4.64222V7.69557H18.3291Z" fill="#016FD0"/>
</svg>
