<svg width="25" height="16" viewBox="0 0 25 16" fill="none" xmlns="http://www.w3.org/2000/svg">
<path d="M22.0315 15.7499L22.0336 15.7499C22.9859 15.7581 23.7671 14.9773 23.779 14.0042L23.779 2.0063C23.7752 1.53569 23.5885 1.08617 23.2603 0.756802C22.933 0.428269 22.4918 0.246149 22.0315 0.250071L2.09409 0.250062C1.6359 0.246149 1.1947 0.428269 0.86737 0.756802C0.539212 1.08617 0.35246 1.53569 0.348641 2.00426L0.348633 13.9937C0.35246 14.4643 0.539212 14.9138 0.86737 15.2432C1.1947 15.5717 1.6359 15.7538 2.09621 15.7499H22.0315ZM22.0304 16.2499C22.0301 16.2499 22.0297 16.2499 22.0293 16.2499L22.0315 16.2499H22.0304Z" fill="white" stroke="black" stroke-opacity="0.2" stroke-width="0.5"/>
<path d="M12.6743 16.0002H22.0313C22.5566 16.0046 23.062 15.7995 23.4365 15.4301C23.811 15.0607 24.0238 14.5573 24.0282 14.0305V11.6719C20.4948 13.7062 16.6628 15.167 12.6743 16.0002Z" fill="#F27712"/>
<path d="M23.203 9.29643H22.3531L21.3959 8.03023H21.3051V9.29643H20.612V6.15161H21.6352C22.4356 6.15161 22.8977 6.48264 22.8977 7.0785C22.8977 7.56678 22.6089 7.88126 22.089 7.98057L23.203 9.29643ZM22.1798 7.10333C22.1798 6.79712 21.9488 6.63988 21.5197 6.63988H21.3051V7.59161H21.5032C21.9488 7.59161 22.1798 7.42609 22.1798 7.10333ZM18.1861 6.15161H20.15V6.68126H18.8792V7.38471H20.1005V7.92264H18.8792V8.77505H20.15V9.30471H18.1861V6.15161ZM15.9583 9.37919L14.4565 6.14333H15.2157L16.1646 8.26195L17.1217 6.14333H17.8643L16.3461 9.37919H15.9748H15.9583ZM9.679 9.37092C8.62282 9.37092 7.79769 8.65092 7.79769 7.71574C7.79769 6.8054 8.63933 6.06885 9.6955 6.06885C9.99255 6.06885 10.2401 6.12678 10.5454 6.25919V6.98747C10.3142 6.75965 10.0031 6.63187 9.679 6.63161C9.01889 6.63161 8.51556 7.11161 8.51556 7.71574C8.51556 8.35299 9.01064 8.80816 9.712 8.80816C10.0256 8.80816 10.2648 8.70885 10.5454 8.46057V9.18885C10.2318 9.32126 9.96779 9.37092 9.679 9.37092ZM7.58315 8.33643C7.58315 8.94885 7.07982 9.37092 6.3537 9.37092C5.82562 9.37092 5.44606 9.18885 5.12425 8.77505L5.57808 8.38609C5.73485 8.66747 5.9989 8.80816 6.32895 8.80816C6.6425 8.80816 6.86529 8.61781 6.86529 8.36954C6.86529 8.22885 6.79928 8.12126 6.659 8.0385C6.5052 7.96365 6.34504 7.90271 6.18043 7.85643C5.52857 7.64954 5.30578 7.42609 5.30578 6.98747C5.30578 6.47436 5.78436 6.0854 6.41146 6.0854C6.80753 6.0854 7.16234 6.20954 7.45938 6.44126L7.09632 6.85505C6.95243 6.69683 6.74875 6.60671 6.53523 6.60678C6.23818 6.60678 6.02365 6.75574 6.02365 6.95436C6.02365 7.11988 6.14742 7.21092 6.55999 7.35161C7.35212 7.59988 7.58315 7.83161 7.58315 8.34471V8.33643ZM4.17535 6.15161H4.86846V9.30471H4.17535V6.15161ZM1.94748 9.30471H0.924316V6.15161H1.94748C3.06967 6.15161 3.84529 6.79712 3.84529 7.72402C3.84529 8.19574 3.61426 8.64264 3.20994 8.94057C2.86338 9.18885 2.47557 9.30471 1.93923 9.30471H1.94748ZM2.75612 6.93781C2.52508 6.75574 2.26103 6.68954 1.80721 6.68954H1.61743V8.77505H1.80721C2.25278 8.77505 2.53333 8.6923 2.75612 8.52678C2.9954 8.32816 3.13568 8.03023 3.13568 7.72402C3.13568 7.41781 2.9954 7.12816 2.75612 6.93781Z" fill="black"/>
<path d="M12.4764 6.06885C11.5688 6.06885 10.8262 6.79712 10.8262 7.69919C10.8262 8.65919 11.5358 9.37919 12.4764 9.37919C13.4006 9.37919 14.1267 8.65092 14.1267 7.72402C14.1267 6.79712 13.4088 6.06885 12.4764 6.06885Z" fill="#F27712"/>
</svg>
