<svg width="25" height="16" viewBox="0 0 25 16" fill="none" xmlns="http://www.w3.org/2000/svg">
<path d="M22.1765 0H2.23578C1.13448 0 0.241699 0.89543 0.241699 2V14C0.241699 15.1046 1.13448 16 2.23578 16H22.1765C23.2778 16 24.1706 15.1046 24.1706 14V2C24.1706 0.89543 23.2778 0 22.1765 0Z" fill="#252525"/>
<path d="M9.21517 13C11.9684 13 14.2004 10.7614 14.2004 8C14.2004 5.23858 11.9684 3 9.21517 3C6.46193 3 4.22998 5.23858 4.22998 8C4.22998 10.7614 6.46193 13 9.21517 13Z" fill="#EB001B"/>
<path d="M15.1971 13C17.9503 13 20.1823 10.7614 20.1823 8C20.1823 5.23858 17.9503 3 15.1971 3C12.4439 3 10.2119 5.23858 10.2119 8C10.2119 10.7614 12.4439 13 15.1971 13Z" fill="#F79E1B"/>
<path fill-rule="evenodd" clip-rule="evenodd" d="M12.206 3.99951C13.4168 4.91172 14.2001 6.36406 14.2001 7.99988C14.2001 9.6357 13.4168 11.088 12.206 12.0002C10.9951 11.088 10.2119 9.6357 10.2119 7.99988C10.2119 6.36406 10.9951 4.91172 12.206 3.99951Z" fill="#FF5F00"/>
</svg>
