<svg width="31" height="30" viewBox="0 0 31 30" fill="none" xmlns="http://www.w3.org/2000/svg">
<g clip-path="url(#clip0_113002_9665)">
<path d="M16.3591 29.3435C24.1689 29.3435 30.5 23.0124 30.5 15.2027C30.5 7.39286 24.1689 1.06177 16.3591 1.06177C8.54935 1.06177 2.21826 7.39286 2.21826 15.2027C2.21826 23.0124 8.54935 29.3435 16.3591 29.3435Z" fill="url(#paint0_linear_113002_9665)"/>
<path d="M26.316 7.76491C25.8308 7.4085 25.3163 7.08155 24.7772 6.78467C24.4802 6.24544 24.1533 5.73097 23.7969 5.24573C21.8175 2.5512 19.176 1.06726 16.3591 1.06726C13.5422 1.06726 10.9007 2.5512 8.92134 5.24573C8.56487 5.73097 8.23799 6.2455 7.94111 6.78467C7.40187 7.08155 6.8874 7.40844 6.40216 7.76491C3.70763 9.74432 2.22369 12.3857 2.22369 15.2027C2.22369 18.0196 3.70763 20.6611 6.40216 22.6404C6.8874 22.9969 7.40193 23.3238 7.94111 23.6207C8.23799 24.1598 8.56487 24.6744 8.92134 25.1596C10.9008 27.8541 13.5422 29.3381 16.3591 29.3381C19.176 29.3381 21.8175 27.8541 23.7969 25.1596C24.1533 24.6744 24.4802 24.1598 24.7772 23.6206C25.3163 23.3237 25.8309 22.9968 26.316 22.6404C29.0106 20.661 30.4945 18.0196 30.4945 15.2026C30.4945 12.3857 29.0106 9.74432 26.316 7.76491ZM16.3591 28.6727C15.5828 28.6727 14.76 27.5163 14.1095 25.5431C14.8468 25.6298 15.5983 25.6747 16.3591 25.6747C17.1199 25.6747 17.8715 25.6298 18.6088 25.5431C17.9582 27.5163 17.1354 28.6727 16.3591 28.6727ZM16.3591 25.0093C15.518 25.0093 14.695 24.9524 13.8962 24.8444C13.4529 23.277 13.131 21.3953 12.9468 19.341C14.0495 19.4198 15.1936 19.4604 16.3591 19.4604C17.5246 19.4604 18.6687 19.4198 19.7714 19.341C19.5873 21.3953 19.2654 23.2769 18.8221 24.8444C18.0233 24.9524 17.2002 25.0093 16.3591 25.0093ZM16.3591 1.73273C17.1354 1.73273 17.9582 2.88914 18.6088 4.86232C17.8715 4.77555 17.1199 4.73061 16.3591 4.73061C15.5983 4.73061 14.8468 4.77555 14.1095 4.86232C14.76 2.88908 15.5828 1.73273 16.3591 1.73273ZM16.3591 5.39608C17.2002 5.39608 18.0233 5.45303 18.8221 5.56097C19.2654 7.1285 19.5873 9.01008 19.7714 11.0644C18.6687 10.9856 17.5246 10.945 16.3591 10.945C15.1936 10.945 14.0496 10.9856 12.9468 11.0644C13.1309 9.01008 13.4528 7.1285 13.8962 5.56097C14.695 5.45303 15.518 5.39608 16.3591 5.39608ZM12.7668 15.2027C12.7668 14.0162 12.8095 12.8535 12.892 11.7356C14.0099 11.6531 15.1726 11.6103 16.3591 11.6103C17.5456 11.6103 18.7083 11.6531 19.8262 11.7356C19.9087 12.8535 19.9515 14.0161 19.9515 15.2027C19.9515 16.3892 19.9087 17.5518 19.8262 18.6697C18.7083 18.7522 17.5456 18.795 16.3591 18.795C15.1726 18.795 14.0099 18.7522 12.892 18.6697C12.8095 17.5519 12.7668 16.3892 12.7668 15.2027ZM12.2208 18.615C10.1665 18.4308 8.28481 18.109 6.71734 17.6656C6.60946 16.8668 6.55246 16.0437 6.55246 15.2027C6.55246 14.3616 6.6094 13.5386 6.71734 12.7397C8.28481 12.2964 10.1665 11.9746 12.2208 11.7904C12.142 12.8931 12.1013 14.0371 12.1013 15.2027C12.1013 16.3682 12.1419 17.5123 12.2208 18.615ZM20.4975 11.7904C22.5518 11.9746 24.4334 12.2964 26.0009 12.7398C26.1088 13.5386 26.1658 14.3617 26.1658 15.2027C26.1658 16.0438 26.1089 16.8668 26.0009 17.6657C24.4334 18.109 22.5518 18.4308 20.4975 18.615C20.5763 17.5123 20.6169 16.3683 20.6169 15.2027C20.6169 14.0371 20.5763 12.8931 20.4975 11.7904ZM20.4441 11.1177C20.2689 9.10408 19.9634 7.24726 19.5429 5.67355C21.2782 5.98091 22.8829 6.5335 24.2838 7.27803C25.0283 8.67891 25.5809 10.2836 25.8883 12.0188C24.3146 11.5984 22.4578 11.293 20.4441 11.1177ZM12.2741 11.1177C10.2605 11.293 8.40364 11.5984 6.82993 12.0188C7.13728 10.2836 7.68987 8.67891 8.4344 7.27803C9.83528 6.5335 11.4399 5.98091 13.1752 5.67355C12.7548 7.24726 12.4494 9.10408 12.2741 11.1177ZM6.01869 17.4523C4.04552 16.8018 2.88911 15.979 2.88911 15.2027C2.88911 14.4264 4.04546 13.6036 6.01869 12.953C5.93199 13.6903 5.88699 14.4418 5.88699 15.2027C5.88699 15.9635 5.93199 16.715 6.01869 17.4523ZM12.2741 19.2877C12.4493 21.3013 12.7548 23.1581 13.1752 24.7318C11.4399 24.4245 9.83528 23.8719 8.4344 23.1274C7.68987 21.7265 7.13728 20.1218 6.82993 18.3866C8.40369 18.807 10.2605 19.1124 12.2741 19.2877ZM20.4441 19.2877C22.4578 19.1124 24.3146 18.807 25.8883 18.3866C25.5809 20.1218 25.0283 21.7265 24.2838 23.1274C22.8829 23.872 21.2783 24.4245 19.5429 24.7318C19.9634 23.1581 20.2689 21.3013 20.4441 19.2877ZM26.6995 12.9531C28.6727 13.6036 29.829 14.4264 29.829 15.2027C29.829 15.979 28.6727 16.8018 26.6995 17.4524C26.7862 16.7151 26.8312 15.9636 26.8312 15.2027C26.8312 14.4418 26.7863 13.6904 26.6995 12.9531ZM29.6719 13.7041C29.0208 13.1488 27.9887 12.6497 26.599 12.2227C26.357 10.6904 25.9287 9.23067 25.3291 7.89361C27.6043 9.37508 29.1866 11.4095 29.6719 13.7041ZM23.6683 6.23273C22.3312 5.63314 20.8714 5.20479 19.3392 4.96273C18.9121 3.57303 18.413 2.54091 17.8578 1.88979C20.1523 2.3752 22.1868 3.9575 23.6683 6.23273ZM14.8605 1.88985C14.3053 2.54097 13.8062 3.57308 13.3791 4.96279C11.8469 5.20479 10.387 5.63314 9.04999 6.23273C10.5315 3.9575 12.5659 2.3752 14.8605 1.88985ZM7.38911 7.89355C6.78958 9.23061 6.36116 10.6904 6.11916 12.2227C4.72946 12.6497 3.69734 13.1488 3.04622 13.7041C3.53158 11.4095 5.11393 9.37508 7.38911 7.89355ZM3.04622 16.7013C3.69734 17.2566 4.72946 17.7557 6.11916 18.1827C6.36116 19.715 6.78958 21.1748 7.38911 22.5118C5.11393 21.0303 3.53158 18.9959 3.04622 16.7013ZM9.04993 24.1727C10.387 24.7723 11.8468 25.2006 13.379 25.4426C13.8061 26.8323 14.3052 27.8644 14.8605 28.5156C12.5659 28.0302 10.5315 26.4478 9.04993 24.1727ZM17.8577 28.5156C18.4129 27.8644 18.912 26.8323 19.3391 25.4426C20.8713 25.2006 22.3312 24.7722 23.6682 24.1727C22.1868 26.4478 20.1523 28.0302 17.8577 28.5156ZM25.3291 22.5118C25.9287 21.1748 26.357 19.715 26.599 18.1828C27.9888 17.7557 29.0209 17.2566 29.6719 16.7014C29.1866 18.9959 27.6043 21.0303 25.3291 22.5118Z" fill="url(#paint1_linear_113002_9665)"/>
<path d="M11.4956 1.92078C7.95515 3.2176 5.07809 5.88978 3.51074 9.29019C3.32497 9.69319 3.23303 10.1331 3.23303 10.5768C3.23303 11.4034 3.56139 12.196 4.1458 12.7805L4.4348 13.0695C5.72997 14.3647 7.48656 15.0923 9.31821 15.0923C9.59186 15.0923 9.81368 14.8704 9.81368 14.5968C9.81368 14.3232 9.59186 14.1014 9.31821 14.1014H7.79521C7.0928 14.1014 6.52333 13.532 6.52333 12.8295C6.52333 12.1271 7.09274 11.5576 7.79521 11.5576H8.98474C10.4111 11.5576 11.779 10.991 12.7876 9.98243L14.6242 8.14578C15.0241 7.74584 15.5666 7.52113 16.1322 7.52113C16.9504 7.52113 17.6965 7.05302 18.0524 6.31625C18.4887 5.41331 17.8309 4.3649 16.8281 4.3649H14.4584C13.7617 4.3649 13.1969 3.80013 13.1969 3.10337C13.1968 2.22419 12.3213 1.61837 11.4956 1.92078Z" fill="url(#paint2_linear_113002_9665)"/>
<path d="M30.1708 12.1558C29.9755 11.2666 29.1804 10.6376 28.2701 10.6376H26.2766H25.2111C23.3999 10.6376 21.9318 12.1058 21.9318 13.9169V14.3159C21.9318 15.9067 23.2214 17.1963 24.8121 17.1963C25.6209 17.1963 26.2766 17.852 26.2766 18.6608V22.4852C26.2766 23.4818 27.5706 23.8788 28.1245 23.0502C29.2754 21.3285 30.0584 19.3395 30.3609 17.1963C30.4524 16.5452 30.5001 15.8792 30.5001 15.2027C30.5 14.1565 30.3863 13.1371 30.1708 12.1558Z" fill="url(#paint3_linear_113002_9665)"/>
<path d="M22.6848 2.5531C23.6385 4.45657 24.1761 6.60475 24.1761 8.87875C24.1761 16.6885 17.8451 23.0196 10.0352 23.0196C7.76124 23.0196 5.61307 22.482 3.70959 21.5283C6.03136 26.162 10.8234 29.3435 16.3591 29.3435C24.1689 29.3435 30.5 23.0125 30.5 15.2026C30.5 9.66687 27.3185 4.87487 22.6848 2.5531Z" fill="url(#paint4_linear_113002_9665)"/>
<path d="M23.4963 9.35934C22.7873 8.65034 21.0248 9.2367 17.6695 12.3706L15.7087 12.1289L15.0753 11.4755C14.7368 11.1369 14.188 11.1369 13.8494 11.4755C13.7685 11.5564 13.7078 11.6496 13.6658 11.7489L13.1615 11.2415C12.823 10.903 12.2741 10.903 11.9356 11.2415C11.8224 11.3548 11.748 11.4917 11.7104 11.6362L10.9521 11.5428C10.7713 11.5205 10.5637 11.6032 10.4069 11.7601L9.1089 13.0581C8.9719 13.1951 8.97255 13.3924 9.11026 13.4517L13.0165 17.2689C11.8777 18.5938 10.8371 19.9038 10.0383 21.0328L8.09367 20.7689C8.01555 20.7583 7.92532 20.7938 7.8572 20.8619L7.25143 21.4676C7.13449 21.5846 7.12402 21.7523 7.22949 21.8201L8.6899 23.2372C8.44473 23.7735 8.37714 24.1535 8.53967 24.316L13.2162 28.9925C14.227 29.2219 15.2788 29.3436 16.3591 29.3436C23.793 29.3436 29.8868 23.6071 30.4562 16.3193L23.4963 9.35934Z" fill="url(#paint5_linear_113002_9665)"/>
<path d="M12.5485 12.7213C13.0273 12.7213 13.4153 12.3332 13.4153 11.8544C13.4153 11.3757 13.0273 10.9876 12.5485 10.9876C12.0698 10.9876 11.6817 11.3757 11.6817 11.8544C11.6817 12.3332 12.0698 12.7213 12.5485 12.7213Z" fill="url(#paint6_linear_113002_9665)"/>
<path d="M12.5485 12.5779C12.9481 12.5779 13.272 12.254 13.272 11.8544C13.272 11.4548 12.9481 11.1309 12.5485 11.1309C12.149 11.1309 11.8251 11.4548 11.8251 11.8544C11.8251 12.254 12.149 12.5779 12.5485 12.5779Z" fill="url(#paint7_linear_113002_9665)"/>
<path d="M13.371 11.5803C13.3298 11.7041 13.26 11.8206 13.1615 11.9191C12.823 12.2577 12.2741 12.2577 11.9356 11.9191C11.837 11.8206 11.7672 11.7041 11.7261 11.5803C11.6258 11.8818 11.6957 12.2274 11.9356 12.4674C12.2741 12.8059 12.823 12.8059 13.1615 12.4674C13.4014 12.2274 13.4712 11.8819 13.371 11.5803Z" fill="url(#paint8_linear_113002_9665)"/>
<path d="M12.5485 12.7213C13.0273 12.7213 13.4153 12.3332 13.4153 11.8544C13.4153 11.3757 13.0273 10.9876 12.5485 10.9876C12.0698 10.9876 11.6817 11.3757 11.6817 11.8544C11.6817 12.3332 12.0698 12.7213 12.5485 12.7213Z" fill="url(#paint9_linear_113002_9665)"/>
<path d="M15.0753 12.7013C14.7368 13.0398 14.1879 13.0398 13.8494 12.7013C13.5109 12.3627 13.5109 11.8139 13.8494 11.4754C14.1879 11.1369 14.7368 11.1369 15.0753 11.4754C15.4138 11.8139 15.4138 12.3628 15.0753 12.7013Z" fill="url(#paint10_linear_113002_9665)"/>
<path d="M14.4624 12.8119C14.8619 12.8119 15.1858 12.488 15.1858 12.0884C15.1858 11.6888 14.8619 11.3649 14.4624 11.3649C14.0628 11.3649 13.7389 11.6888 13.7389 12.0884C13.7389 12.488 14.0628 12.8119 14.4624 12.8119Z" fill="url(#paint11_linear_113002_9665)"/>
<path d="M15.2848 11.8143C15.2437 11.9381 15.1738 12.0545 15.0753 12.1531C14.7368 12.4916 14.1879 12.4916 13.8494 12.1531C13.7508 12.0545 13.6811 11.9381 13.6399 11.8143C13.5397 12.1157 13.6095 12.4614 13.8494 12.7013C14.1879 13.0399 14.7368 13.0399 15.0753 12.7013C15.3152 12.4613 15.3851 12.1157 15.2848 11.8143Z" fill="url(#paint12_linear_113002_9665)"/>
<path d="M15.0753 12.7013C14.7368 13.0398 14.1879 13.0398 13.8494 12.7013C13.5109 12.3627 13.5109 11.8139 13.8494 11.4754C14.1879 11.1369 14.7368 11.1369 15.0753 11.4754C15.4138 11.8139 15.4138 12.3628 15.0753 12.7013Z" fill="url(#paint13_linear_113002_9665)"/>
<path d="M21.0012 21.174C21.4799 21.174 21.868 20.7859 21.868 20.3071C21.868 19.8284 21.4799 19.4403 21.0012 19.4403C20.5224 19.4403 20.1343 19.8284 20.1343 20.3071C20.1343 20.7859 20.5224 21.174 21.0012 21.174Z" fill="url(#paint14_linear_113002_9665)"/>
<path d="M21.0012 21.0306C21.4007 21.0306 21.7247 20.7067 21.7247 20.3071C21.7247 19.9075 21.4007 19.5836 21.0012 19.5836C20.6016 19.5836 20.2777 19.9075 20.2777 20.3071C20.2777 20.7067 20.6016 21.0306 21.0012 21.0306Z" fill="url(#paint15_linear_113002_9665)"/>
<path d="M21.2753 19.4846C21.1515 19.5258 21.0351 19.5956 20.9365 19.6941C20.5979 20.0326 20.5979 20.5815 20.9365 20.92C21.0351 21.0186 21.1515 21.0884 21.2753 21.1295C20.9738 21.2298 20.6282 21.1599 20.3882 20.92C20.0497 20.5815 20.0497 20.0326 20.3882 19.6941C20.6282 19.4542 20.9738 19.3844 21.2753 19.4846Z" fill="url(#paint16_linear_113002_9665)"/>
<path d="M21.0012 21.174C21.4799 21.174 21.868 20.7859 21.868 20.3071C21.868 19.8284 21.4799 19.4403 21.0012 19.4403C20.5224 19.4403 20.1343 19.8284 20.1343 20.3071C20.1343 20.7859 20.5224 21.174 21.0012 21.174Z" fill="url(#paint17_linear_113002_9665)"/>
<path d="M20.1543 17.7803C19.8158 18.1189 19.8158 18.6677 20.1543 19.0062C20.4928 19.3447 21.0416 19.3447 21.3802 19.0062C21.7187 18.6677 21.7187 18.1189 21.3802 17.7803C21.0416 17.4418 20.4928 17.4418 20.1543 17.7803Z" fill="url(#paint18_linear_113002_9665)"/>
<path d="M20.7672 19.1167C21.1668 19.1167 21.4907 18.7928 21.4907 18.3933C21.4907 17.9937 21.1668 17.6698 20.7672 17.6698C20.3677 17.6698 20.0438 17.9937 20.0438 18.3933C20.0438 18.7928 20.3677 19.1167 20.7672 19.1167Z" fill="url(#paint19_linear_113002_9665)"/>
<path d="M21.0413 17.5708C20.9175 17.6119 20.8011 17.6818 20.7025 17.7803C20.364 18.1188 20.364 18.6677 20.7025 19.0062C20.8011 19.1048 20.9175 19.1745 21.0413 19.2157C20.7399 19.3159 20.3942 19.2461 20.1543 19.0062C19.8158 18.6677 19.8158 18.1188 20.1543 17.7803C20.3942 17.5404 20.7398 17.4706 21.0413 17.5708Z" fill="url(#paint20_linear_113002_9665)"/>
<path d="M20.1543 17.7803C19.8158 18.1189 19.8158 18.6677 20.1543 19.0062C20.4928 19.3447 21.0416 19.3447 21.3802 19.0062C21.7187 18.6677 21.7187 18.1189 21.3802 17.7803C21.0416 17.4418 20.4928 17.4418 20.1543 17.7803Z" fill="url(#paint21_linear_113002_9665)"/>
<path d="M7.22947 21.8201L9.08747 23.0138L10.9454 21.1559L8.09364 20.7689C8.01553 20.7583 7.92529 20.7938 7.85717 20.8619L7.25141 21.4676C7.13447 21.5846 7.12406 21.7523 7.22947 21.8201Z" fill="url(#paint22_linear_113002_9665)"/>
<path d="M7.43267 21.2864L7.25149 21.4676C7.13455 21.5846 7.12408 21.7523 7.22955 21.8201L9.08755 23.0138L10.5209 21.5805L7.66914 21.1934C7.59102 21.1828 7.50079 21.2184 7.43267 21.2864Z" fill="url(#paint23_linear_113002_9665)"/>
<path d="M11.0355 25.6261L9.84174 23.7681L11.6997 21.9102L12.0867 24.7619C12.0973 24.84 12.0618 24.9303 11.9937 24.9984L11.388 25.6042C11.271 25.7211 11.1033 25.7315 11.0355 25.6261Z" fill="url(#paint24_linear_113002_9665)"/>
<path d="M11.5691 25.423L11.388 25.6041C11.271 25.7211 11.1033 25.7315 11.0355 25.6261L9.84174 23.7681L11.2751 22.3347L11.6621 25.1865C11.6727 25.2646 11.6372 25.3549 11.5691 25.423Z" fill="url(#paint25_linear_113002_9665)"/>
<path d="M9.11024 13.4517L15.0227 15.9998L18.5441 12.4784L10.9521 11.5428C10.7712 11.5205 10.5637 11.6032 10.4069 11.7601L9.10889 13.0581C8.97195 13.195 8.97259 13.3924 9.11024 13.4517Z" fill="url(#paint26_linear_113002_9665)"/>
<path d="M9.57028 12.5966L9.10887 13.058C8.97187 13.195 8.97252 13.3924 9.11022 13.4517L15.0227 15.9998L17.7075 13.315L10.1155 12.3794C9.93464 12.357 9.72716 12.4398 9.57028 12.5966Z" fill="url(#paint27_linear_113002_9665)"/>
<path d="M12.9492 12.7286L10.1155 12.3794C9.93464 12.3571 9.72717 12.4398 9.57028 12.5967L9.10887 13.0581C8.97187 13.1951 8.97252 13.3924 9.11022 13.4517L11.2877 14.3901L12.9492 12.7286Z" fill="url(#paint28_linear_113002_9665)"/>
<path d="M9.11023 13.4517L15.0227 15.9998L16.2336 14.7889L9.67894 12.488L9.10894 13.058C8.97194 13.195 8.97259 13.3923 9.11023 13.4517Z" fill="url(#paint29_linear_113002_9665)"/>
<path d="M19.4039 23.7453L16.8558 17.8329L20.3772 14.3115L21.3128 21.9035C21.3351 22.0843 21.2524 22.2919 21.0955 22.4487L19.7976 23.7466C19.6606 23.8836 19.4632 23.883 19.4039 23.7453Z" fill="url(#paint30_linear_113002_9665)"/>
<path d="M20.259 23.2853L19.7975 23.7467C19.6605 23.8837 19.4632 23.8831 19.4039 23.7454L16.8558 17.8329L19.5407 15.1481L20.4762 22.7401C20.4985 22.921 20.4158 23.1284 20.259 23.2853Z" fill="url(#paint31_linear_113002_9665)"/>
<path d="M20.127 19.9064L20.4763 22.7401C20.4986 22.921 20.4159 23.1284 20.259 23.2853L19.7976 23.7467C19.6606 23.8837 19.4632 23.8831 19.4039 23.7454L18.4655 21.5679L20.127 19.9064Z" fill="url(#paint32_linear_113002_9665)"/>
<path d="M19.4039 23.7454L16.8558 17.8329L18.0668 16.6219L20.3675 23.1767L19.7975 23.7467C19.6606 23.8837 19.4632 23.883 19.4039 23.7454Z" fill="url(#paint33_linear_113002_9665)"/>
<path d="M19.3429 16.3659C15.2128 20.496 9.32753 25.1038 8.53965 24.3159C7.75177 23.528 12.3595 17.6428 16.4896 13.5126C20.6198 9.38253 22.7083 8.57141 23.4962 9.3593C24.2841 10.1472 23.4731 12.2358 19.3429 16.3659Z" fill="url(#paint34_linear_113002_9665)"/>
<path d="M19.0368 16.2452C15.1083 20.1737 9.57487 24.6208 8.90487 23.9507C8.23487 23.2807 12.682 17.7472 16.6104 13.8188C20.5389 9.89031 22.461 9.05448 23.131 9.72448C23.8011 10.3945 22.9652 12.3167 19.0368 16.2452Z" fill="url(#paint35_linear_113002_9665)"/>
<path d="M19.3429 16.3659C23.473 12.2357 24.2841 10.1473 23.4963 9.35938L8.53967 24.316C9.32761 25.1038 15.2128 20.4961 19.3429 16.3659Z" fill="url(#paint36_linear_113002_9665)"/>
<path d="M19.9785 10.8913C19.7255 11.1115 19.4601 11.3486 19.1818 11.6034C19.1106 11.6686 19.1171 11.7697 19.1941 11.7836C19.6703 11.8693 20.1001 12.0779 20.4389 12.4167C20.7777 12.7555 20.9863 13.1854 21.072 13.6615C21.0859 13.7385 21.187 13.745 21.2522 13.6738C21.507 13.3955 21.7441 13.13 21.9643 12.8771C22.1142 12.7049 22.1788 12.4883 22.1303 12.3135C22.0241 11.9316 21.8321 11.5869 21.5504 11.3052C21.2686 11.0235 20.924 10.8314 20.5421 10.7253C20.3673 10.6768 20.1507 10.7413 19.9785 10.8913Z" fill="url(#paint37_linear_113002_9665)"/>
<path d="M21.9641 12.8771C21.7706 13.1 21.5635 13.3324 21.343 13.5747C21.313 13.6076 21.283 13.6406 21.2524 13.6741C21.1871 13.7453 21.0859 13.7388 21.0718 13.6618C20.9865 13.1853 20.7777 12.7553 20.4388 12.4165C20.4188 12.3965 20.3988 12.3771 20.3783 12.3588C20.1377 12.1359 19.8553 11.9747 19.5459 11.8724C19.8241 11.6188 20.0883 11.3824 20.3406 11.1629C20.513 11.0129 20.7294 10.9482 20.9041 10.9971C21.1118 11.0547 21.3083 11.1376 21.49 11.2471C21.5106 11.2659 21.5306 11.2853 21.5506 11.3053C21.8324 11.5871 22.0241 11.9318 22.13 12.3135C22.1788 12.4882 22.1141 12.7047 21.9641 12.8771Z" fill="url(#paint38_linear_113002_9665)"/>
<path d="M21.072 13.6615C21.0859 13.7385 21.187 13.745 21.2522 13.6738C21.507 13.3955 21.7441 13.1301 21.9643 12.8771C22.1142 12.7049 22.1788 12.4884 22.1303 12.3135C22.0241 11.9316 21.8321 11.5869 21.5504 11.3052L20.4389 12.4167C20.7777 12.7555 20.9863 13.1854 21.072 13.6615Z" fill="url(#paint39_linear_113002_9665)"/>
<path d="M9.92767 23.0523L9.80338 22.928C9.69944 22.824 9.73508 22.6242 9.88091 22.4937L12.0277 20.5719C12.122 20.4875 12.247 20.4741 12.3142 20.5414C12.3814 20.6087 12.3681 20.7337 12.2837 20.828L10.3619 22.9747C10.2314 23.1205 10.0316 23.1562 9.92767 23.0523Z" fill="url(#paint40_linear_113002_9665)"/>
<path d="M2.37965 27.4443C2.25624 27.4443 2.13747 27.4368 2.02424 27.4219C1.865 27.4009 1.76065 27.2447 1.80359 27.0899L1.92135 26.6648C1.95535 26.5422 2.07194 26.4608 2.19859 26.4732C2.43647 26.4965 2.73153 26.4708 3.07053 26.3967C3.20759 26.3667 3.34429 26.4498 3.38077 26.5853L3.49424 27.0067C3.53347 27.1524 3.442 27.3001 3.29459 27.3329C2.96159 27.4069 2.65477 27.4443 2.37965 27.4443ZM4.49047 26.6693L4.32724 26.2651C4.27359 26.1323 4.33577 25.9816 4.46735 25.9249C4.76324 25.7976 5.07647 25.6487 5.40318 25.4802C5.53106 25.4143 5.68853 25.4631 5.75624 25.5901L5.9613 25.9746C6.03047 26.1043 5.97971 26.2657 5.84906 26.3331C5.49724 26.5147 5.15877 26.6754 4.83788 26.8132C4.70241 26.8714 4.54577 26.8061 4.49047 26.6693ZM0.924471 26.3322C0.775353 26.3954 0.603882 26.3107 0.565706 26.1533C0.522059 25.973 0.5 25.7761 0.5 25.5647C0.5 25.3422 0.524412 25.0987 0.572824 24.8383C0.600412 24.6897 0.746235 24.5937 0.893235 24.6286L1.31771 24.7296C1.45329 24.7618 1.54071 24.8946 1.51576 25.0317C1.48035 25.2268 1.46247 25.4053 1.46247 25.5646C1.46247 25.6754 1.47112 25.7764 1.48812 25.867C1.51112 25.9892 1.44718 26.1107 1.33265 26.1592L0.924471 26.3322ZM6.86459 25.4661L6.64247 25.0911C6.569 24.9671 6.60859 24.807 6.73188 24.7323C7.02271 24.5561 7.32247 24.3671 7.62747 24.1675C7.7483 24.0884 7.91041 24.122 7.99041 24.2422L8.23183 24.605C8.313 24.727 8.27871 24.8916 8.15612 24.9718C7.84036 25.1784 7.52965 25.3744 7.22794 25.5571C7.10247 25.6331 6.93935 25.5923 6.86459 25.4661ZM9.45283 24.0836C9.33371 24.1686 9.16818 24.141 9.08388 24.0214L9.45283 24.0836ZM1.61553 23.7791L1.20876 23.6226C1.07088 23.5696 1.00294 23.4137 1.05924 23.2771C1.19218 22.9546 1.34912 22.6134 1.52806 22.258C1.59418 22.1267 1.75524 22.0743 1.88565 22.1423L2.27206 22.3438C2.39959 22.4104 2.44988 22.5672 2.38524 22.6957C2.22 23.0241 2.07541 23.3381 1.95318 23.6338C1.89853 23.7661 1.74906 23.8306 1.61553 23.7791ZM2.76353 21.4544L2.38706 21.2349C2.26047 21.1611 2.21824 20.9984 2.29324 20.8726C2.29565 20.8686 2.29806 20.8646 2.30041 20.8606C2.37547 20.7348 2.539 20.6942 2.664 20.7705L3.036 20.9975C3.15929 21.0727 3.19877 21.2334 3.12471 21.3574C3.12382 21.359 3.12288 21.3604 3.122 21.362C3.04806 21.486 2.88829 21.5271 2.76353 21.4544ZM23.9433 9.12849L23.5863 8.87861C23.4679 8.79573 23.4382 8.63273 23.5203 8.51379C23.7266 8.21479 23.9241 7.91938 24.1104 7.63132C24.1888 7.51008 24.3503 7.47526 24.4722 7.55261L24.8401 7.7862C24.9637 7.86473 24.9995 8.02879 24.9199 8.15179C24.7278 8.44902 24.5241 8.75355 24.3115 9.06167C24.2284 9.1822 24.0632 9.21244 23.9433 9.12849ZM25.3791 6.90291L25.003 6.68279C24.8787 6.61002 24.8359 6.45044 24.9073 6.32532C25.089 6.00685 25.2552 5.69802 25.4038 5.40267C25.4684 5.27432 25.6237 5.22196 25.7531 5.28449L26.1455 5.47414C26.2781 5.5382 26.3327 5.69796 26.2665 5.82949C26.1091 6.14255 25.9334 6.46926 25.7415 6.80544C25.6687 6.93291 25.5058 6.97702 25.3791 6.90291ZM26.5634 4.51797L26.1574 4.35979C26.024 4.30785 25.9575 4.15891 26.0057 4.0242C26.1292 3.67944 26.2175 3.36432 26.2697 3.08261C26.2948 2.94673 26.4213 2.85444 26.5586 2.87044L26.9922 2.92114C27.1428 2.93873 27.2481 3.07926 27.2213 3.22838C27.1594 3.57296 27.0542 3.95238 26.9071 4.36185C26.857 4.50114 26.7012 4.57167 26.5634 4.51797ZM22.9772 2.04296L22.7968 1.64608C22.7359 1.51208 22.7968 1.35355 22.9319 1.29526C23.3117 1.13161 23.6702 0.998494 24.0031 0.897435C24.1465 0.853906 24.2974 0.937435 24.3354 1.08249L24.446 1.50432C24.4817 1.64061 24.4042 1.7812 24.2695 1.82238C23.9773 1.91161 23.66 2.02979 23.3214 2.17544C23.1897 2.23208 23.0365 2.17349 22.9772 2.04296ZM26.4625 1.97555C26.3552 2.01685 26.2311 1.98549 26.1619 1.89361C26.146 1.87238 26.1288 1.85255 26.1102 1.83402C25.9679 1.69173 25.7327 1.61938 25.4111 1.61891H25.4021V0.656494V1.13773L25.4026 0.932553C25.403 0.777612 25.5368 0.654906 25.691 0.670612C26.1482 0.7172 26.5163 0.879082 26.7908 1.15344C26.8744 1.23702 26.948 1.33032 27.0111 1.43238C27.0974 1.57191 27.0331 1.75596 26.8801 1.81485L26.4625 1.97555Z" fill="url(#paint41_linear_113002_9665)"/>
<path d="M10.238 5.44667C10.692 5.44667 11.06 5.07865 11.06 4.62467C11.06 4.1707 10.692 3.80267 10.238 3.80267C9.78404 3.80267 9.41602 4.1707 9.41602 4.62467C9.41602 5.07865 9.78404 5.44667 10.238 5.44667Z" fill="url(#paint42_linear_113002_9665)"/>
<path d="M5.8585 11.5314C6.31248 11.5314 6.6805 11.1634 6.6805 10.7094C6.6805 10.2554 6.31248 9.88739 5.8585 9.88739C5.40452 9.88739 5.0365 10.2554 5.0365 10.7094C5.0365 11.1634 5.40452 11.5314 5.8585 11.5314Z" fill="url(#paint43_linear_113002_9665)"/>
<path d="M28.2715 13.6338C28.7255 13.6338 29.0935 13.2658 29.0935 12.8118C29.0935 12.3578 28.7255 11.9898 28.2715 11.9898C27.8175 11.9898 27.4495 12.3578 27.4495 12.8118C27.4495 13.2658 27.8175 13.6338 28.2715 13.6338Z" fill="url(#paint44_linear_113002_9665)"/>
</g>
<defs>
<linearGradient id="paint0_linear_113002_9665" x1="9.51132" y1="8.35489" x2="26.6505" y2="25.494" gradientUnits="userSpaceOnUse">
<stop stop-color="#00AEFC"/>
<stop offset="1" stop-color="#3F3CEE"/>
</linearGradient>
<linearGradient id="paint1_linear_113002_9665" x1="18.5204" y1="30.7713" x2="13.4322" y2="-5.88097" gradientUnits="userSpaceOnUse">
<stop stop-color="#00AEFC" stop-opacity="0"/>
<stop offset="1" stop-color="#18CFFC"/>
</linearGradient>
<linearGradient id="paint2_linear_113002_9665" x1="11.9168" y1="9.53449" x2="34.197" y2="25.3433" gradientUnits="userSpaceOnUse">
<stop stop-color="#E5F3FF"/>
<stop offset="1" stop-color="#B3CCFF"/>
</linearGradient>
<linearGradient id="paint3_linear_113002_9665" x1="24.0791" y1="16.4089" x2="34.0636" y2="18.1654" gradientUnits="userSpaceOnUse">
<stop stop-color="#E5F3FF"/>
<stop offset="1" stop-color="#B3CCFF"/>
</linearGradient>
<linearGradient id="paint4_linear_113002_9665" x1="21.0283" y1="12.4077" x2="31.4224" y2="-7.89925" gradientUnits="userSpaceOnUse">
<stop stop-color="#3F3CEE" stop-opacity="0"/>
<stop offset="1" stop-color="#2F43BC"/>
</linearGradient>
<linearGradient id="paint5_linear_113002_9665" x1="22.5254" y1="23.3451" x2="15.3287" y2="16.1483" gradientUnits="userSpaceOnUse">
<stop stop-color="#3F3CEE" stop-opacity="0"/>
<stop offset="1" stop-color="#2F43BC"/>
</linearGradient>
<linearGradient id="paint6_linear_113002_9665" x1="12.5578" y1="11.3883" x2="12.5578" y2="12.9758" gradientUnits="userSpaceOnUse">
<stop stop-color="#F9F7FC"/>
<stop offset="1" stop-color="#F0DDFC"/>
</linearGradient>
<linearGradient id="paint7_linear_113002_9665" x1="12.5579" y1="12.2473" x2="12.5579" y2="11.1381" gradientUnits="userSpaceOnUse">
<stop stop-color="#E9EDF5" stop-opacity="0"/>
<stop offset="1" stop-color="white"/>
</linearGradient>
<linearGradient id="paint8_linear_113002_9665" x1="12.3443" y1="12.1031" x2="14.7534" y2="11.3787" gradientUnits="userSpaceOnUse">
<stop stop-color="#F0DDFC" stop-opacity="0"/>
<stop offset="0.2889" stop-color="#C8B7E0" stop-opacity="0.289"/>
<stop offset="0.5915" stop-color="#A595C8" stop-opacity="0.592"/>
<stop offset="0.8395" stop-color="#8F81B8" stop-opacity="0.84"/>
<stop offset="1" stop-color="#8779B3"/>
</linearGradient>
<linearGradient id="paint9_linear_113002_9665" x1="12.6363" y1="11.4085" x2="12.4943" y2="12.2024" gradientUnits="userSpaceOnUse">
<stop stop-color="#F0DDFC" stop-opacity="0"/>
<stop offset="0.2889" stop-color="#C8B7E0" stop-opacity="0.289"/>
<stop offset="0.5915" stop-color="#A595C8" stop-opacity="0.592"/>
<stop offset="0.8395" stop-color="#8F81B8" stop-opacity="0.84"/>
<stop offset="1" stop-color="#8779B3"/>
</linearGradient>
<linearGradient id="paint10_linear_113002_9665" x1="14.4714" y1="11.6222" x2="14.4714" y2="13.2097" gradientUnits="userSpaceOnUse">
<stop stop-color="#F9F7FC"/>
<stop offset="1" stop-color="#F0DDFC"/>
</linearGradient>
<linearGradient id="paint11_linear_113002_9665" x1="14.4714" y1="12.4812" x2="14.4714" y2="11.372" gradientUnits="userSpaceOnUse">
<stop stop-color="#E9EDF5" stop-opacity="0"/>
<stop offset="1" stop-color="white"/>
</linearGradient>
<linearGradient id="paint12_linear_113002_9665" x1="14.2578" y1="12.3369" x2="16.667" y2="11.6126" gradientUnits="userSpaceOnUse">
<stop stop-color="#F0DDFC" stop-opacity="0"/>
<stop offset="0.2889" stop-color="#C8B7E0" stop-opacity="0.289"/>
<stop offset="0.5915" stop-color="#A595C8" stop-opacity="0.592"/>
<stop offset="0.8395" stop-color="#8F81B8" stop-opacity="0.84"/>
<stop offset="1" stop-color="#8779B3"/>
</linearGradient>
<linearGradient id="paint13_linear_113002_9665" x1="14.5498" y1="11.6424" x2="14.4078" y2="12.4363" gradientUnits="userSpaceOnUse">
<stop stop-color="#F0DDFC" stop-opacity="0"/>
<stop offset="0.2889" stop-color="#C8B7E0" stop-opacity="0.289"/>
<stop offset="0.5915" stop-color="#A595C8" stop-opacity="0.592"/>
<stop offset="0.8395" stop-color="#8F81B8" stop-opacity="0.84"/>
<stop offset="1" stop-color="#8779B3"/>
</linearGradient>
<linearGradient id="paint14_linear_113002_9665" x1="21.4693" y1="20.2998" x2="19.8818" y2="20.2998" gradientUnits="userSpaceOnUse">
<stop stop-color="#F9F7FC"/>
<stop offset="1" stop-color="#F0DDFC"/>
</linearGradient>
<linearGradient id="paint15_linear_113002_9665" x1="20.6103" y1="20.2997" x2="21.7195" y2="20.2997" gradientUnits="userSpaceOnUse">
<stop stop-color="#E9EDF5" stop-opacity="0"/>
<stop offset="1" stop-color="white"/>
</linearGradient>
<linearGradient id="paint16_linear_113002_9665" x1="20.7546" y1="20.5133" x2="21.4789" y2="18.1042" gradientUnits="userSpaceOnUse">
<stop stop-color="#F0DDFC" stop-opacity="0"/>
<stop offset="0.2889" stop-color="#C8B7E0" stop-opacity="0.289"/>
<stop offset="0.5915" stop-color="#A595C8" stop-opacity="0.592"/>
<stop offset="0.8395" stop-color="#8F81B8" stop-opacity="0.84"/>
<stop offset="1" stop-color="#8779B3"/>
</linearGradient>
<linearGradient id="paint17_linear_113002_9665" x1="21.4491" y1="20.2214" x2="20.6552" y2="20.3633" gradientUnits="userSpaceOnUse">
<stop stop-color="#F0DDFC" stop-opacity="0"/>
<stop offset="0.2889" stop-color="#C8B7E0" stop-opacity="0.289"/>
<stop offset="0.5915" stop-color="#A595C8" stop-opacity="0.592"/>
<stop offset="0.8395" stop-color="#8F81B8" stop-opacity="0.84"/>
<stop offset="1" stop-color="#8779B3"/>
</linearGradient>
<linearGradient id="paint18_linear_113002_9665" x1="21.2354" y1="18.3862" x2="19.6479" y2="18.3862" gradientUnits="userSpaceOnUse">
<stop stop-color="#F9F7FC"/>
<stop offset="1" stop-color="#F0DDFC"/>
</linearGradient>
<linearGradient id="paint19_linear_113002_9665" x1="20.3764" y1="18.3862" x2="21.4856" y2="18.3862" gradientUnits="userSpaceOnUse">
<stop stop-color="#E9EDF5" stop-opacity="0"/>
<stop offset="1" stop-color="white"/>
</linearGradient>
<linearGradient id="paint20_linear_113002_9665" x1="20.5207" y1="18.5998" x2="21.245" y2="16.1907" gradientUnits="userSpaceOnUse">
<stop stop-color="#F0DDFC" stop-opacity="0"/>
<stop offset="0.2889" stop-color="#C8B7E0" stop-opacity="0.289"/>
<stop offset="0.5915" stop-color="#A595C8" stop-opacity="0.592"/>
<stop offset="0.8395" stop-color="#8F81B8" stop-opacity="0.84"/>
<stop offset="1" stop-color="#8779B3"/>
</linearGradient>
<linearGradient id="paint21_linear_113002_9665" x1="21.2152" y1="18.3078" x2="20.4212" y2="18.4497" gradientUnits="userSpaceOnUse">
<stop stop-color="#F0DDFC" stop-opacity="0"/>
<stop offset="0.2889" stop-color="#C8B7E0" stop-opacity="0.289"/>
<stop offset="0.5915" stop-color="#A595C8" stop-opacity="0.592"/>
<stop offset="0.8395" stop-color="#8F81B8" stop-opacity="0.84"/>
<stop offset="1" stop-color="#8779B3"/>
</linearGradient>
<linearGradient id="paint22_linear_113002_9665" x1="9.08242" y1="21.2545" x2="8.87884" y2="22.6154" gradientUnits="userSpaceOnUse">
<stop stop-color="#FFDA45"/>
<stop offset="0.3043" stop-color="#FFCE3E"/>
<stop offset="0.8558" stop-color="#FFAE2B"/>
<stop offset="1" stop-color="#FFA425"/>
</linearGradient>
<linearGradient id="paint23_linear_113002_9665" x1="8.61375" y1="21.8035" x2="10.6337" y2="19.7399" gradientUnits="userSpaceOnUse">
<stop stop-color="#FFDA45" stop-opacity="0"/>
<stop offset="1" stop-color="#B53759"/>
</linearGradient>
<linearGradient id="paint24_linear_113002_9665" x1="11.604" y1="23.7761" x2="10.2431" y2="23.9797" gradientUnits="userSpaceOnUse">
<stop stop-color="#FFDA45"/>
<stop offset="0.3043" stop-color="#FFCE3E"/>
<stop offset="0.8558" stop-color="#FFAE2B"/>
<stop offset="1" stop-color="#FFA425"/>
</linearGradient>
<linearGradient id="paint25_linear_113002_9665" x1="11.055" y1="24.2448" x2="13.1186" y2="22.2249" gradientUnits="userSpaceOnUse">
<stop stop-color="#FFDA45" stop-opacity="0"/>
<stop offset="1" stop-color="#B53759"/>
</linearGradient>
<linearGradient id="paint26_linear_113002_9665" x1="14.0895" y1="12.3249" x2="11.9777" y2="15.8548" gradientUnits="userSpaceOnUse">
<stop stop-color="#FFDA45"/>
<stop offset="0.3043" stop-color="#FFCE3E"/>
<stop offset="0.8558" stop-color="#FFAE2B"/>
<stop offset="1" stop-color="#FFA425"/>
</linearGradient>
<linearGradient id="paint27_linear_113002_9665" x1="12.4405" y1="14.6281" x2="16.7816" y2="8.15847" gradientUnits="userSpaceOnUse">
<stop stop-color="#FFDA45" stop-opacity="0"/>
<stop offset="1" stop-color="#B53759"/>
</linearGradient>
<linearGradient id="paint28_linear_113002_9665" x1="11.3645" y1="13.5065" x2="13.4623" y2="16.1373" gradientUnits="userSpaceOnUse">
<stop stop-color="#F0DDFC" stop-opacity="0"/>
<stop offset="0.2889" stop-color="#C8B7E0" stop-opacity="0.289"/>
<stop offset="0.5915" stop-color="#A595C8" stop-opacity="0.592"/>
<stop offset="0.8395" stop-color="#8F81B8" stop-opacity="0.84"/>
<stop offset="1" stop-color="#8779B3"/>
</linearGradient>
<linearGradient id="paint29_linear_113002_9665" x1="12.5359" y1="14.1673" x2="11.6589" y2="15.7959" gradientUnits="userSpaceOnUse">
<stop stop-color="#FFDA45" stop-opacity="0"/>
<stop offset="1" stop-color="#B53759"/>
</linearGradient>
<linearGradient id="paint30_linear_113002_9665" x1="20.5327" y1="18.7681" x2="17.0028" y2="20.8799" gradientUnits="userSpaceOnUse">
<stop stop-color="#FFDA45"/>
<stop offset="0.3043" stop-color="#FFCE3E"/>
<stop offset="0.8558" stop-color="#FFAE2B"/>
<stop offset="1" stop-color="#FFA425"/>
</linearGradient>
<linearGradient id="paint31_linear_113002_9665" x1="18.654" y1="20.1323" x2="25.1236" y2="15.7911" gradientUnits="userSpaceOnUse">
<stop stop-color="#FFDA45" stop-opacity="0"/>
<stop offset="1" stop-color="#B53759"/>
</linearGradient>
<linearGradient id="paint32_linear_113002_9665" x1="19.5979" y1="21.6899" x2="16.9671" y2="19.5922" gradientUnits="userSpaceOnUse">
<stop stop-color="#FFDA45" stop-opacity="0"/>
<stop offset="1" stop-color="#B53759"/>
</linearGradient>
<linearGradient id="paint33_linear_113002_9665" x1="18.6903" y1="20.3217" x2="17.0617" y2="21.1987" gradientUnits="userSpaceOnUse">
<stop stop-color="#FFDA45" stop-opacity="0"/>
<stop offset="1" stop-color="#B53759"/>
</linearGradient>
<linearGradient id="paint34_linear_113002_9665" x1="15.4405" y1="16.2618" x2="17.2258" y2="18.0472" gradientUnits="userSpaceOnUse">
<stop stop-color="#E5F3FF"/>
<stop offset="1" stop-color="#B3CCFF"/>
</linearGradient>
<linearGradient id="paint35_linear_113002_9665" x1="16.6776" y1="17.4274" x2="14.1372" y2="15.1591" gradientUnits="userSpaceOnUse">
<stop stop-color="#E5F3FF" stop-opacity="0"/>
<stop offset="1" stop-color="white"/>
</linearGradient>
<linearGradient id="paint36_linear_113002_9665" x1="15.8911" y1="19.1347" x2="19.8442" y2="-8.46065" gradientUnits="userSpaceOnUse">
<stop stop-color="#B3CCFF" stop-opacity="0"/>
<stop offset="1" stop-color="#9FB0CB"/>
</linearGradient>
<linearGradient id="paint37_linear_113002_9665" x1="20.1235" y1="11.1074" x2="21.6783" y2="13.5506" gradientUnits="userSpaceOnUse">
<stop stop-color="#8B788A"/>
<stop offset="1" stop-color="#6E566E"/>
</linearGradient>
<linearGradient id="paint38_linear_113002_9665" x1="20.9082" y1="12.3359" x2="20.4964" y2="10.9095" gradientUnits="userSpaceOnUse">
<stop stop-color="#8B788A" stop-opacity="0"/>
<stop offset="1" stop-color="#9E8C92"/>
</linearGradient>
<linearGradient id="paint39_linear_113002_9665" x1="21.2275" y1="12.659" x2="22.2046" y2="10.1445" gradientUnits="userSpaceOnUse">
<stop stop-color="#555A66" stop-opacity="0"/>
<stop offset="1" stop-color="#555A66"/>
</linearGradient>
<linearGradient id="paint40_linear_113002_9665" x1="11.0424" y1="21.7185" x2="11.2541" y2="21.9301" gradientUnits="userSpaceOnUse">
<stop stop-color="#E5F3FF"/>
<stop offset="1" stop-color="#B3CCFF"/>
</linearGradient>
<linearGradient id="paint41_linear_113002_9665" x1="0.5" y1="14.0504" x2="27.2254" y2="14.0504" gradientUnits="userSpaceOnUse">
<stop stop-color="#FF7044"/>
<stop offset="1" stop-color="#F92814"/>
</linearGradient>
<linearGradient id="paint42_linear_113002_9665" x1="10.1743" y1="4.56103" x2="11.0797" y2="5.46638" gradientUnits="userSpaceOnUse">
<stop stop-color="#FF7044"/>
<stop offset="1" stop-color="#F92814"/>
</linearGradient>
<linearGradient id="paint43_linear_113002_9665" x1="5.51079" y1="10.3617" x2="6.4982" y2="11.3492" gradientUnits="userSpaceOnUse">
<stop stop-color="#92F37F"/>
<stop offset="1" stop-color="#4AB272"/>
</linearGradient>
<linearGradient id="paint44_linear_113002_9665" x1="27.7642" y1="12.3045" x2="29.1808" y2="13.7211" gradientUnits="userSpaceOnUse">
<stop stop-color="#92F37F"/>
<stop offset="1" stop-color="#4AB272"/>
</linearGradient>
<clipPath id="clip0_113002_9665">
<rect width="30" height="30" fill="white" transform="translate(0.5)"/>
</clipPath>
</defs>
</svg>
