<svg width="25" height="16" viewBox="0 0 25 16" fill="none" xmlns="http://www.w3.org/2000/svg">
<path d="M21.9983 0.25H2.55609C1.45479 0.25 0.562012 1.14543 0.562012 2.25V13.75C0.562012 14.8546 1.45479 15.75 2.55609 15.75H21.9983C23.0996 15.75 23.9924 14.8546 23.9924 13.75V2.25C23.9924 1.14543 23.0996 0.25 21.9983 0.25Z" fill="white" stroke="black" stroke-opacity="0.2" stroke-width="0.5"/>
<path d="M3.09201 5.91444C2.57042 5.62751 1.97513 5.39674 1.30957 5.23659L1.33749 5.11188H4.06636C4.43624 5.12489 4.73638 5.23651 4.83405 5.63071L5.4271 8.46659L5.60878 9.32073L7.26983 5.11188H9.06332L6.39734 11.2775H4.60375L3.09201 5.91444ZM10.3826 11.2841H8.68648L9.74735 5.11188H11.4434L10.3826 11.2841ZM16.5311 5.26277L16.3005 6.59559L16.1471 6.53004C15.8401 6.40525 15.435 6.28054 14.8836 6.29371C14.214 6.29371 13.9137 6.56277 13.9067 6.82546C13.9067 7.11441 14.27 7.30484 14.8632 7.58725C15.8404 8.02719 16.2937 8.56557 16.2869 9.26819C16.2732 10.5486 15.1146 11.3761 13.3349 11.3761C12.574 11.3694 11.8411 11.2181 11.4433 11.0476L11.6806 9.66205L11.904 9.76066C12.4554 9.99071 12.8182 10.089 13.4954 10.089C13.9837 10.089 14.5072 9.89838 14.5139 9.48488C14.5139 9.21565 14.2909 9.01851 13.6347 8.71646C12.9927 8.42087 12.1343 7.92848 12.1482 7.04198C12.1554 5.84042 13.3349 5 15.0099 5C15.666 5 16.1966 5.13789 16.5311 5.26277ZM18.7854 9.09749H20.1952C20.1254 8.78889 19.8043 7.31147 19.8043 7.31147L19.6857 6.77964C19.602 7.00943 19.4555 7.38373 19.4626 7.37056C19.4626 7.37056 18.9251 8.7429 18.7854 9.09749ZM20.879 5.11188L22.2474 11.284H20.6769C20.6769 11.284 20.5233 10.5748 20.4746 10.3581H18.2969C18.2339 10.5222 17.9409 11.284 17.9409 11.284H16.1612L18.6806 5.62399C18.8552 5.22342 19.1625 5.11188 19.5671 5.11188H20.879Z" fill="#171E6C"/>
</svg>
